<svg xmlns="http://www.w3.org/2000/svg" version="1.1" width="600px" height="600px" xlink="http://www.w3.org/1999/xlink" style="overflow:hidden!important;"><g id="svga-group-wrapper" transform="scale(3 3)"><g id="svga-group-backs-single"><path id="SvgjsPath3947" d="M225 225H-25V-25h250V225z" fill="#cdb380" stroke-width="none" opacity="1" stroke="none"></path><path id="SvgjsPath3948" d="M24.147 14.53c-2.146 1.82-9.173 6.469-9.173 6.469S8.02 16.344 5.893 14.53c-2.69-2.292-2.351-6.441 0-8.82 2.35-2.384 6.435-2.403 9.081 0.844 2.825-3.278 6.734-3.228 9.083-0.844C26.41 8.089 26.842 12.246 24.147 14.53zM80.057 5.71c-2.349-2.384-6.258-2.434-9.083 0.844 -2.646-3.248-6.731-3.228-9.081-0.844 -2.351 2.379-2.69 6.528 0 8.82 2.127 1.813 9.081 6.469 9.081 6.469s7.027-4.648 9.173-6.469C82.842 12.246 82.41 8.089 80.057 5.71zM137.057 5.71c-2.349-2.384-6.258-2.434-9.083 0.844 -2.646-3.248-6.731-3.228-9.081-0.844 -2.351 2.379-2.69 6.528 0 8.82 2.128 1.813 9.081 6.469 9.081 6.469s7.027-4.648 9.174-6.469C139.843 12.246 139.409 8.089 137.057 5.71zM194.057 5.71c-2.349-2.384-6.258-2.434-9.083 0.844 -2.646-3.248-6.731-3.228-9.081-0.844 -2.351 2.379-2.69 6.528 0 8.82 2.128 1.813 9.081 6.469 9.081 6.469s7.027-4.648 9.174-6.469C196.843 12.246 196.409 8.089 194.057 5.71zM52.057 28.21c-2.349-2.384-6.258-2.434-9.083 0.844 -2.646-3.248-6.731-3.228-9.081-0.844 -2.351 2.379-2.69 6.528 0 8.82 2.127 1.813 9.081 6.469 9.081 6.469s7.027-4.648 9.173-6.469C54.842 34.746 54.41 30.589 52.057 28.21zM108.559 28.21c-2.349-2.384-6.258-2.434-9.085 0.844 -2.646-3.248-6.731-3.228-9.081-0.844 -2.351 2.379-2.69 6.528 0 8.82 2.127 1.813 9.081 6.469 9.081 6.469s7.03-4.648 9.175-6.469C111.344 34.746 110.912 30.589 108.559 28.21zM165.555 28.21c-2.349-2.384-6.258-2.434-9.083 0.844 -2.646-3.248-6.731-3.228-9.081-0.844 -2.351 2.379-2.69 6.528 0 8.82 2.128 1.813 9.081 6.469 9.081 6.469s7.027-4.648 9.174-6.469C168.341 34.746 167.907 30.589 165.555 28.21zM24.147 60.03c-2.146 1.82-9.173 6.469-9.173 6.469S8.02 61.844 5.893 60.03c-2.69-2.292-2.351-6.441 0-8.82 2.35-2.384 6.435-2.403 9.081 0.844 2.825-3.278 6.734-3.228 9.083-0.844C26.41 53.589 26.842 57.746 24.147 60.03zM80.057 51.21c-2.349-2.384-6.258-2.434-9.083 0.844 -2.646-3.248-6.731-3.228-9.081-0.844 -2.351 2.379-2.69 6.528 0 8.82 2.127 1.813 9.081 6.469 9.081 6.469s7.027-4.648 9.173-6.469C82.842 57.746 82.41 53.589 80.057 51.21zM137.057 51.21c-2.349-2.384-6.258-2.434-9.083 0.844 -2.646-3.248-6.731-3.228-9.081-0.844 -2.351 2.379-2.69 6.528 0 8.82 2.128 1.813 9.081 6.469 9.081 6.469s7.027-4.648 9.174-6.469C139.843 57.746 139.409 53.589 137.057 51.21zM194.057 51.21c-2.349-2.384-6.258-2.434-9.083 0.844 -2.646-3.248-6.731-3.228-9.081-0.844 -2.351 2.379-2.69 6.528 0 8.82 2.128 1.813 9.081 6.469 9.081 6.469s7.027-4.648 9.174-6.469C196.843 57.746 196.409 53.589 194.057 51.21zM52.057 72.21c-2.349-2.384-6.258-2.434-9.083 0.844 -2.646-3.248-6.731-3.228-9.081-0.844 -2.351 2.379-2.69 6.528 0 8.82 2.127 1.813 9.081 6.469 9.081 6.469s7.027-4.648 9.173-6.469C54.842 78.746 54.41 74.589 52.057 72.21zM108.559 72.21c-2.349-2.384-6.258-2.434-9.085 0.844 -2.646-3.248-6.731-3.228-9.081-0.844 -2.351 2.379-2.69 6.528 0 8.82 2.127 1.813 9.081 6.469 9.081 6.469s7.03-4.648 9.175-6.469C111.344 78.746 110.912 74.589 108.559 72.21zM165.555 72.21c-2.349-2.384-6.258-2.434-9.083 0.844 -2.646-3.248-6.731-3.228-9.081-0.844 -2.351 2.379-2.69 6.528 0 8.82 2.128 1.813 9.081 6.469 9.081 6.469s7.027-4.648 9.174-6.469C168.341 78.746 167.907 74.589 165.555 72.21zM24.147 103.03c-2.146 1.82-9.173 6.469-9.173 6.469s-6.954-4.655-9.081-6.469c-2.69-2.292-2.351-6.441 0-8.82 2.35-2.384 6.435-2.403 9.081 0.844 2.825-3.278 6.734-3.228 9.083-0.844C26.41 96.589 26.842 100.746 24.147 103.03zM80.057 94.21c-2.349-2.384-6.258-2.434-9.083 0.844 -2.646-3.248-6.731-3.228-9.081-0.844 -2.351 2.379-2.69 6.528 0 8.82 2.127 1.813 9.081 6.469 9.081 6.469s7.027-4.648 9.173-6.469C82.842 100.746 82.41 96.589 80.057 94.21zM137.057 94.21c-2.349-2.384-6.258-2.434-9.083 0.844 -2.646-3.248-6.731-3.228-9.081-0.844 -2.351 2.379-2.69 6.528 0 8.82 2.128 1.813 9.081 6.469 9.081 6.469s7.027-4.648 9.174-6.469C139.843 100.746 139.409 96.589 137.057 94.21zM194.057 94.21c-2.349-2.384-6.258-2.434-9.083 0.844 -2.646-3.248-6.731-3.228-9.081-0.844 -2.351 2.379-2.69 6.528 0 8.82 2.128 1.813 9.081 6.469 9.081 6.469s7.027-4.648 9.174-6.469C196.843 100.746 196.409 96.589 194.057 94.21zM52.057 114.961c-2.349-2.384-6.258-2.434-9.083 0.844 -2.646-3.247-6.731-3.228-9.081-0.844 -2.351 2.379-2.69 6.528 0 8.819 2.127 1.813 9.081 6.469 9.081 6.469s7.027-4.648 9.173-6.469C54.842 121.496 54.41 117.34 52.057 114.961zM108.559 114.961c-2.349-2.384-6.258-2.434-9.085 0.844 -2.646-3.247-6.731-3.228-9.081-0.844 -2.351 2.379-2.69 6.528 0 8.819 2.127 1.813 9.081 6.469 9.081 6.469s7.03-4.648 9.175-6.469C111.344 121.496 110.912 117.34 108.559 114.961zM165.555 114.961c-2.349-2.384-6.258-2.434-9.083 0.844 -2.646-3.247-6.731-3.228-9.081-0.844 -2.351 2.379-2.69 6.528 0 8.819 2.128 1.813 9.081 6.469 9.081 6.469s7.027-4.648 9.174-6.469C168.341 121.496 167.907 117.34 165.555 114.961zM24.147 146.28c-2.146 1.82-9.173 6.469-9.173 6.469s-6.954-4.655-9.081-6.469c-2.69-2.291-2.351-6.44 0-8.819 2.35-2.384 6.435-2.403 9.081 0.844 2.825-3.277 6.734-3.228 9.083-0.844C26.41 139.84 26.842 143.996 24.147 146.28zM80.057 137.461c-2.349-2.384-6.258-2.434-9.083 0.844 -2.646-3.247-6.731-3.228-9.081-0.844 -2.351 2.379-2.69 6.528 0 8.819 2.127 1.813 9.081 6.469 9.081 6.469s7.027-4.648 9.173-6.469C82.842 143.996 82.41 139.84 80.057 137.461zM137.057 137.461c-2.349-2.384-6.258-2.434-9.083 0.844 -2.646-3.247-6.731-3.228-9.081-0.844 -2.351 2.379-2.69 6.528 0 8.819 2.128 1.813 9.081 6.469 9.081 6.469s7.027-4.648 9.174-6.469C139.843 143.996 139.409 139.84 137.057 137.461zM194.057 137.461c-2.349-2.384-6.258-2.434-9.083 0.844 -2.646-3.247-6.731-3.228-9.081-0.844 -2.351 2.379-2.69 6.528 0 8.819 2.128 1.813 9.081 6.469 9.081 6.469s7.027-4.648 9.174-6.469C196.843 143.996 196.409 139.84 194.057 137.461zM52.057 160.461c-2.349-2.384-6.258-2.434-9.083 0.844 -2.646-3.247-6.731-3.228-9.081-0.844 -2.351 2.379-2.69 6.528 0 8.819 2.127 1.813 9.081 6.469 9.081 6.469s7.027-4.648 9.173-6.469C54.842 166.996 54.41 162.84 52.057 160.461zM108.559 160.461c-2.349-2.384-6.258-2.434-9.085 0.844 -2.646-3.247-6.731-3.228-9.081-0.844 -2.351 2.379-2.69 6.528 0 8.819 2.127 1.813 9.081 6.469 9.081 6.469s7.03-4.648 9.175-6.469C111.344 166.996 110.912 162.84 108.559 160.461zM165.555 160.461c-2.349-2.384-6.258-2.434-9.083 0.844 -2.646-3.247-6.731-3.228-9.081-0.844 -2.351 2.379-2.69 6.528 0 8.819 2.128 1.813 9.081 6.469 9.081 6.469s7.027-4.648 9.174-6.469C168.341 166.996 167.907 162.84 165.555 160.461zM24.147 190.28c-2.146 1.82-9.173 6.469-9.173 6.469s-6.954-4.655-9.081-6.469c-2.69-2.291-2.351-6.44 0-8.819 2.35-2.384 6.435-2.403 9.081 0.844 2.825-3.277 6.734-3.228 9.083-0.844C26.41 183.84 26.842 187.996 24.147 190.28zM80.057 181.461c-2.349-2.384-6.258-2.434-9.083 0.844 -2.646-3.247-6.731-3.228-9.081-0.844 -2.351 2.379-2.69 6.528 0 8.819 2.127 1.813 9.081 6.469 9.081 6.469s7.027-4.648 9.173-6.469C82.842 187.996 82.41 183.84 80.057 181.461zM137.057 181.461c-2.349-2.384-6.258-2.434-9.083 0.844 -2.646-3.247-6.731-3.228-9.081-0.844 -2.351 2.379-2.69 6.528 0 8.819 2.128 1.813 9.081 6.469 9.081 6.469s7.027-4.648 9.174-6.469C139.843 187.996 139.409 183.84 137.057 181.461zM194.057 181.461c-2.349-2.384-6.258-2.434-9.083 0.844 -2.646-3.247-6.731-3.228-9.081-0.844 -2.351 2.379-2.69 6.528 0 8.819 2.128 1.813 9.081 6.469 9.081 6.469s7.027-4.648 9.174-6.469C196.843 187.996 196.409 183.84 194.057 181.461z" fill="#be9f63" stroke-width="none" opacity="1" stroke="none"></path></g><g id="svga-group-subwrapper" ><g id="svga-group-hair-back" ><path id="SvgjsPath3960" d="M100.5,100.5h-1v-1h1V100.5z" fill="#080806" stroke-width="none" opacity="1" stroke="none"></path></g><g id="svga-group-humanbody-single"><path id="SvgjsPath3800" d="M195.417 199.778c-2.196-4.746-8.195-11.779-14.86-13.722 -8.239-2.403-26.837-5.308-33.733-6.923 -5.528-1.296-16.662-11.294-20.564-14.65 -0.7-0.6-1.273-1.839-1.287-2.76 -0.139-10.864 4.195-39.724 4.195-39.724H100 70.833c0 0 4.334 28.859 4.193 39.724 -0.011 0.921-0.587 2.16-1.285 2.76 -3.902 3.356-15.036 13.354-20.564 14.65 -6.897 1.615-25.495 4.619-33.733 7.022 -6.667 1.942-12.664 8.876-14.86 13.622 -3.708 8.008-4.584 22.5-4.584 35h100 100C200 222.278 199.123 207.786 195.417 199.778z" fill="#f6e4e2" stroke-width="none" opacity="1" stroke="none"></path><path id="SvgjsPath3801" d="M159.156 184.058c24.342 3.542 34.586 8.708 37.794 50.721H200c0-12.5-0.877-26.992-4.583-35 -2.196-4.746-8.195-11.779-14.86-13.722 -8.239-2.403-26.837-5.308-33.733-6.923 -5.528-1.296-18.242-12.069-21.643-16.35 3.36 4.704 12.791 15.605 21.054 18.46C150.188 182.61 153.48 183.232 159.156 184.058zM53.766 181.244c8.263-2.854 17.693-13.756 21.054-18.46 -3.4 4.28-16.114 15.054-21.643 16.35 -6.896 1.615-25.494 4.619-33.733 7.022 -6.665 1.942-12.664 8.876-14.86 13.622 -3.706 8.008-4.583 22.5-4.583 35h3.05c3.188-41.744 13.475-47.183 37.794-50.721C46.52 183.232 49.813 182.61 53.766 181.244z" fill="#ffffff" stroke-width="none" opacity="1" stroke="none"></path><path id="SvgjsPath3802" d="M95.646 197.62c0 0-5.074-1.609-7.083-2.379 -10.449-4.009-44.395-6.607-44.395-6.607s35.754 1.419 43.644 2.779c-0.458-4.767-3.017-20.004-3.017-20.004s5.149 16.815 6.409 21.057C91.878 194.734 95.646 197.62 95.646 197.62zM106.445 196.278c-0.089 0.073-0.191 0.168-0.302 0.268C106.256 196.461 106.358 196.372 106.445 196.278zM95.646 197.62c0 0 2.893 2.992 4.347 3.03 1.91 0.051 4.828-2.899 6.151-4.104 -1.265 0.957-4.159 1.391-5.31 1.436C99.504 198.033 95.646 197.62 95.646 197.62zM116.664 190.101c-1.545 0.248-4.386 0.789-4.386 0.789l2.287-14.89c-0.646 3.071-4.474 16.211-8.12 20.278 1.91-1.616 6.158-2.391 8.324-2.704 10.236-1.484 10.232-1.483 41.062-4.94C155.831 188.634 126.76 188.479 116.664 190.101z" fill="#e7c1bd" stroke-width="none" opacity="1" stroke="none"></path><path id="SvgjsPath3803" d="M195.417 199.778c-2.196-4.746-8.195-11.779-14.86-13.722 -8.239-2.403-26.837-5.308-33.733-6.923 -5.528-1.296-16.662-11.294-20.564-14.65 -0.7-0.6-1.273-1.839-1.287-2.76 -0.139-10.864 4.195-39.724 4.195-39.724H100 70.833c0 0 4.334 28.859 4.193 39.724 -0.011 0.921-0.587 2.16-1.285 2.76 -3.902 3.356-15.036 13.354-20.564 14.65 -6.897 1.615-25.495 4.619-33.733 7.022 -6.667 1.942-12.664 8.876-14.86 13.622 -3.708 8.008-4.584 22.5-4.584 35h100 100C200 222.278 199.123 207.786 195.417 199.778z" fill="none" stroke="#c8837c" stroke-width="1.5" opacity="1"></path></g><g id="svga-group-chinshadow-single"><path id="SvgjsPath4083" d="M75.464 163.188c5.276 4.256 10.716 8.678 24.538 8.678 13.815 0 19.256-4.418 24.531-8.672 -0.188-0.49-0.305-0.997-0.312-1.461 -0.088-6.889 1.573-20.711 2.835-30.131 -15.695-2.201-38.418-2.201-54.113 0 1.261 9.421 2.922 23.242 2.833 30.13C75.771 162.188 75.654 162.695 75.464 163.188z" fill="url(#SvgjsLinearGradient4084)" opacity="1"></path></g><g id="svga-group-clothes-single" ><path id="SvgjsPath4068" d="M197.798 201.546c-10.478-20.278-30.653-17.404-49.968-22.843 -0.468 3.585-13.251 20.479-16.287 30.061 -1.705-1.423-3.74-3.325-5.209-5.066 -7.188-8.443-17.841-35.76-21.416-14.428 0.777-9.576 5.003-11.686 10.871-3.659 6.308 8.638 6.542 13.098 15.542 22.491 1.59-6.601 5.032-11.259 9.036-17.104 3.875-5.663 6.705-8.217 7.119-13.258 -1.445-2.408-1.099-3.486-3.434-5.046 -14.655-9.912-4.192-19.97-17.476-22.365 -0.104 1.198-0.235 2.54-0.345 3.549 2.841 1.462 3.691 7.152-0.683 11.318 -6.951 7.631-18.12 8.01-21.032 19.723l-0.007-0.001c-0.927 3.477-1.669 8.799-2.021 11.919l-2.455 24.898 -2.47-24.457c-2.003-18.359-4.621-20.155-13.183-25.828 -5.673-3.76-14.943-9.433-11.917-15.847 0.345-0.742 0.765-1.198 1.286-1.541 -0.15-1.466-0.238-2.316-0.354-3.678 -10.967 0.467-9.281 15.982-17.586 21.69 -2.177 1.496-3.287 2.879-4.068 5.129 0.531 6.281 14.504 20.476 16.945 30.899 9.085-9.592 9.155-13.783 15.5-22.459 5.465-7.465 9.928-6.699 10.867 3.403 -0.516-3.035-1.738-7.681-4.386-7.681 -2.182 0-4.456 3.218-5.581 4.771 -6.299 8.678-7.311 14.885-16.647 22.633 -0.646-1.941-1.404-3.891-2.308-5.706 -3.7-7.474-13.719-22.555-14.858-24.017 -4.428 1.246-11.177 2.626-15.233 3.3 -26.504 4.411-36.778 12.969-40.685 53.031 97.202-0.984 136.811-0.556 209.21-0.556C203.66 225.907 201.881 209.46 197.798 201.546z" fill="#386e77" stroke-width="none" opacity="1" stroke="none"></path><path id="SvgjsPath4069" d="M139.969 190.783c-3.461 5.054-6.201 9.3-7.908 14.621 1.967-10.979 14.436-21.374 13.086-27.939 -0.578-2.812-10.526-9.081-11.041-18.4 2.745 8.538 12.992 14.632 13.009 18.723C147.142 184.482 146.942 180.595 139.969 190.783zM204.486 234.028c0.347-8.682-2.572-25.584-6.19-32.598 -10.478-20.278-31.563-17.691-50.877-23.13 -0.171 0.218 0.49 1.66 0.027 2.28C192.595 188.9 197.736 198.817 204.486 234.028zM55.812 172.075c5.547-4.597 7.21-9.05 8.483-13.011 -2.85 16.28-7.111 10.123-10.22 18.276 -1.778 4.663 12.003 17.403 13.866 28.063 -2.442-4.175-5.06-9.313-8.521-14.367 -2.694-3.937-4.41-7.537-7.079-10.567C51.069 173.756 53.696 173.829 55.812 172.075zM52.34 180.47c-0.463-0.62-0.894-1.204-1.065-1.422 -19.314 5.438-38.594 2.104-49.071 22.383 -3.619 7.014-5.426 21.363-6.423 30.064 1.929-10.573 4.804-23.893 10.963-31.929C17.188 185.399 36.46 182.665 52.34 180.47z" fill="#4d7e86" stroke-width="none" opacity="1" stroke="none"></path><path id="SvgjsPath4070" d="M119.848 171.392c-4.863 2.82-8.981 5.588-11.713 9.481 6.567 0.362 11.421 12.099 12.734 13.695 -12.333-17.166-17-5.5-18.5 5.432 0.432-3.546 0.787-9.596 1.487-12.193 0.204-1.033 0.423-2.021 0.654-2.889l0.007 0.001c2.912-11.713 14.081-12.092 21.032-19.723 4.374-4.166 3.523-9.856 0.683-11.318 0.109-1.009 0.241-2.351 0.345-3.549 0.729 0.133 1.379 0.292 1.982 0.469C137.518 158.679 125.96 168.657 119.848 171.392zM78.965 171.392c4.864 2.82 10.812 6.162 13.536 9.717 -4.798-0.873-10.131 6.294-12.798 12.627 11.5-14.667 15-6.333 18.667 6.265 -0.431-3.545-1.524-9.596-2.224-12.193 -0.204-1.033-0.422-2.021-0.654-2.889l-0.006 0.001c-2.912-11.713-13.682-12.092-20.633-19.723 -4.374-4.166-3.622-9.856-0.781-11.318 -0.109-1.009-0.24-2.351-0.344-3.549 -0.729 0.133-1.379 0.292-1.982 0.469C64.238 159.967 73.472 168.06 78.965 171.392z" fill="#265e68" stroke-width="none" opacity="1" stroke="none"></path><path id="SvgjsPath4071" d="M125.876 163.323c0.031-5.701-0.159-2.538 0.418-8.99C128.518 155.526 128.801 160.423 125.876 163.323zM74.139 162.784c-2.323-3.04-2.61-6.145-0.347-8.49C74.334 159.352 74.059 158.742 74.139 162.784z" fill="#184f58" stroke-width="none" opacity="1" stroke="none"></path><path id="SvgjsPath4072" d="M147.624 176.915c-0.206-3.542-7.813-6.496-11.188-14.175 -2.417-5.47-0.123-11.734-10.065-12.741 -0.545 3.187-1.028 10.193-0.883 13.579 -5.038 5.423-12.831 6.826-17.785 12.657 -5.288 6.224-7.58 19.7-7.667 47.667l1.232-0.801c0 0 1.372-26.485 1.382-26.563 3.084-26.427 12.888-20.185 22.979-31.263 4.521-4.332 3.441-10.072 0.722-11.463 0.118-1.12 0.228-2.229 0.325-3.35 8.552 1.571 6.109 6.605 8.784 12.753 3.556 8.174 10.297 9.959 10.732 13.923 0.69 6.281-3.058 8.947-6.817 14.434 -5.913 8.559-7.28 12.925-8.101 16.308 -8.975-9.426-8.98-13.558-15.398-22.338 -6.844-9.366-11.339-4.974-13.226 10.996 0.194-2.625 3.77-17.175 8.043-14.651 4.939 2.878 9.791 15.108 15.561 21.886 1.539 1.823 3.521 3.652 5.345 5.182 3.407-11.897 16-24.465 16.408-30.205 19.695 5.556 53.439-0.145 56.441 55.963 -41.138 0.22-85.815-0.682-208.97 0.554 1.785-18.437 4.804-36.508 15.723-44.653 4.685-3.507 10.117-5.341 15.712-6.508 7.797-1.616 16.522-2.655 24.253-4.747 0.788 1 14.205 21.198 17.224 29.597 10.863-8.503 15.207-24.459 21.188-27.214 4.164-1.913 7.559 11.938 7.753 14.553 -1.63-16.891-6.95-22.418-17.024-4.923 -4.964 8.624-6.28 10.962-11.56 16.51 -2.12-8.994-16.895-25.954-16.253-30.662 0.634-4.646 6.314-3.363 10.098-13.244 2.122-5.54 1.652-11.648 10.708-13.455 0.098 1.167 0.217 2.32 0.336 3.486 -2.479 1.631-3.109 7.111 0.852 10.942 3.567 4.085 10.004 6.416 14.255 9.676 5.011 3.867 6.993 7.827 8.588 21.67 0.035 0.302 1.37 26.942 1.37 26.942l1.333 0.667c-0.667-27.833-3.335-44.568-8.721-49.258 -4.652-4.15-12.775-6.796-16.717-11.429 0.12-3.476-0.565-10.518-0.993-13.171 -9.009 0.918-9.264 6.638-11.196 11.632 -5.165 13.351-10.134 9.527-10.957 15.059 -0.077 0.517 0.042 0.906 0.167 1.594 -7.58 1.548-17.04 2.563-24.641 3.953 -11.343 2.071-22.045 8.058-26.925 19.452 -3.707 8.647-4.781 24.051-5.053 33.543 -0.011 0.068-0.011 0.147-0.011 0.215 0.152 0.012 0.314 0.012 0.466 0.012 130.475 1.387 208.449-0.578 209.534-0.578C205.369 181.568 176.202 183.902 147.624 176.915zM125.976 163.024c0.016-2.933 0.105-6.329 0.318-8.691C127.892 155.473 129.133 159.262 125.976 163.024zM74.088 162.593c-2.652-3.471-1.6-6.836-0.396-8C73.943 156.939 74.042 160.224 74.088 162.593z" fill="#0c4049" stroke-width="none" opacity="1" stroke="none"></path></g><g id="svga-group-head" ><g id="svga-group-ears-left" ><path id="SvgjsPath4063" d="M47.001 83.231c-1.376-2.453-5.638-8.48-9.98-7.003 -2.749 0.935-3.293 3.993-3.735 6.693 -0.588 3.591 0.471 10.694 1.389 13.26 0.881 2.467 3.533 7.23 5.264 9.045 2.13 2.225 4.775 9.324 5.194 10.061 0.66 1.162 1.536 2.911 4.122 2.692 2.853-0.244 4.584-1.85 5.856-2.121C58.253 115.192 50.582 89.616 47.001 83.231z" fill="#f6e4e2" stroke="#c8837c" stroke-width="1.5" opacity="1"></path><path id="SvgjsPath4064" d="M44.197 98.104c-0.132-0.581 0.007-1.56 0.142-2.504 0.124-0.861 0.24-1.675 0.169-2.251 -0.267-2.154-1.773-6.249-2.757-8.467 -1.132-2.554-2.963-5.77-5.262-6.599 -0.95-0.343-1.575 0.067-1.938 0.484 -0.266 0.305-0.325 0.665-0.238 0.707 0.086 0.042 0.285-0.254 0.572-0.535 0.235-0.229 0.579-0.426 1.051-0.385 -0.19 1.073-1.167 6.883-0.744 10.845 0.333 3.115 1.593 5.442 1.79 5.791 0.029 0.367 0.077 0.726 0.148 1.075 0.929 4.547 4.971 9.717 6.378 11.409 0.259 0.313 0.531 0.497 0.598 0.423 0.066-0.076-0.094-0.387-0.353-0.7 -1.388-1.679-5.391-6.831-6.289-11.218 -0.952-4.656 2.318-11.556 3.048-13.017 0.371 0.685 0.687 1.344 0.93 1.893 0.19 0.431 0.402 0.936 0.619 1.479 -0.429 0.762-3.434 6.32-2.338 10.767 0.406 1.641 2.235 3.755 3.447 4.333 0.667 0.32 0.919 0.797 1.209 1.349 0.336 0.64 0.718 1.365 1.828 1.892 0.225 0.108 0.429 0.151 0.61 0.151 0.313 0 0.551-0.135 0.725-0.293 0.018 0.28 0.017 0.64 0.009 0.97 -0.012 0.431 0.042 0.783 0.137 0.791 0.094 0.008 0.196-0.332 0.207-0.76 0.016-0.526 0.013-1.177-0.072-1.488 -0.248-0.917-1.008-1.953-1.813-3.048C45.221 100.116 44.403 99.003 44.197 98.104zM36.95 94.073c-2.177-7.139 0.656-13.3 1.144-14.28 0.85 0.822 1.6 1.919 2.21 2.995C39.86 83.646 37.041 89.271 36.95 94.073zM46.341 104.515c-1.004-0.475-1.339-1.115-1.666-1.733 -0.293-0.559-0.598-1.136-1.369-1.505 -0.168-0.081-0.352-0.203-0.542-0.343 -2.486-6.263 0.272-9.001 0.963-9.562 0.211 0.766 0.369 1.468 0.439 2.031 0.063 0.517-0.052 1.339-0.167 2.134 -0.142 0.985-0.286 2.004-0.137 2.664 0.226 0.982 1.069 2.131 1.884 3.242 0.723 0.986 1.466 2.003 1.721 2.832C47.359 104.439 47.017 104.836 46.341 104.515z" fill="#c8837c" stroke-width="none" opacity="1" stroke="none"></path></g><g id="svga-group-ears-right" ><path id="SvgjsPath4065" d="M152.736 83.231c1.377-2.453 5.639-8.48 9.98-7.003 2.75 0.935 3.293 3.993 3.736 6.693 0.588 3.591-0.471 10.694-1.389 13.26 -0.881 2.467-3.533 7.23-5.266 9.045 -2.129 2.225-4.775 9.324-5.193 10.061 -0.658 1.162-1.535 2.911-4.121 2.692 -2.854-0.244-4.584-1.85-5.857-2.121C141.484 115.192 149.156 89.616 152.736 83.231z" fill="#f6e4e2" stroke="#c8837c" stroke-width="1.5" opacity="1"></path><path id="SvgjsPath4066" d="M153.727 101.196c-0.805 1.096-1.564 2.131-1.813 3.048 -0.086 0.311-0.088 0.962-0.072 1.488 0.012 0.428 0.113 0.768 0.207 0.76s0.148-0.36 0.137-0.791c-0.008-0.331-0.008-0.69 0.01-0.97 0.174 0.158 0.412 0.293 0.725 0.293 0.182 0 0.385-0.043 0.609-0.151 1.109-0.526 1.492-1.252 1.828-1.892 0.289-0.552 0.543-1.028 1.209-1.349 1.213-0.578 3.041-2.692 3.447-4.333 1.096-4.447-1.908-10.005-2.338-10.767 0.217-0.544 0.43-1.049 0.619-1.479 0.244-0.549 0.559-1.208 0.93-1.893 0.73 1.46 4 8.361 3.049 13.017 -0.896 4.387-4.9 9.539-6.289 11.218 -0.258 0.313-0.418 0.624-0.352 0.7 0.066 0.074 0.338-0.109 0.598-0.423 1.406-1.692 5.449-6.862 6.379-11.409 0.07-0.35 0.117-0.708 0.146-1.075 0.197-0.349 1.459-2.676 1.791-5.791 0.422-3.961-0.555-9.772-0.744-10.845 0.473-0.042 0.814 0.156 1.051 0.385 0.287 0.281 0.486 0.577 0.572 0.535 0.086-0.042 0.027-0.402-0.238-0.707 -0.363-0.417-0.988-0.827-1.938-0.484 -2.299 0.83-4.131 4.045-5.262 6.599 -0.984 2.218-2.49 6.313-2.758 8.467 -0.072 0.576 0.045 1.39 0.17 2.251 0.135 0.945 0.273 1.924 0.141 2.504C155.336 99.003 154.518 100.116 153.727 101.196zM159.434 82.787c0.611-1.075 1.361-2.173 2.211-2.995 0.488 0.98 3.32 7.141 1.145 14.28C162.697 89.271 159.879 83.646 159.434 82.787zM152.27 104.275c0.254-0.829 0.998-1.846 1.721-2.832 0.816-1.111 1.658-2.26 1.885-3.242 0.148-0.66 0.004-1.679-0.137-2.664 -0.115-0.795-0.23-1.617-0.166-2.134 0.068-0.563 0.227-1.266 0.438-2.031 0.691 0.561 3.449 3.299 0.965 9.562 -0.191 0.14-0.375 0.263-0.543 0.343 -0.771 0.369-1.074 0.946-1.369 1.505 -0.326 0.618-0.662 1.258-1.666 1.733C152.721 104.836 152.379 104.439 152.27 104.275z" fill="#c8837c" stroke-width="none" opacity="1" stroke="none"></path></g><g id="svga-group-faceshape-wrap" ><g id="svga-group-faceshape-single" ><path id="SvgjsPath4080" d="M100.002 0.867C66.384 0.92 39.082 28.536 39.134 62.56c0.008 5.403 0.704 10.643 2.002 15.634h0.001c0.012 0.054 11.542 38.591 14.02 51.25 1.382 7.06 9.063 15.656 16.531 20.849 6.967 4.845 11.263 11.574 28.313 11.574s21.346-6.729 28.313-11.574c7.468-5.192 15.149-13.789 16.531-20.849 2.479-12.658 14.009-51.196 14.02-51.25h0.002c1.298-4.992 1.994-10.231 2.002-15.634C160.923 28.536 133.62 0.92 100.002 0.867z" fill="#f6e4e2" stroke-width="none" opacity="1" stroke="none"></path><path id="SvgjsPath4081" d="M146.772 23.096c7.478 10.35 11.917 23.245 11.898 37.227 -0.009 5.403-0.679 10.643-1.93 15.634h-0.002c-0.011 0.054-11.124 38.591-13.512 51.25 -1.335 7.06-8.737 15.656-15.935 20.849 -6.718 4.845-10.854 11.575-27.291 11.575 -16.434 0-20.575-6.73-27.291-11.575 -7.197-5.192-14.602-13.789-15.931-20.849 -2.391-12.658-13.504-51.195-13.515-51.25h0c-1.252-4.992-1.922-10.231-1.931-15.634 -0.021-13.978 4.416-26.868 11.889-37.217 -8.812 10.697-14.112 24.45-14.089 39.453 0.008 5.403 0.704 10.643 2.002 15.634h0.001c0.012 0.054 11.542 38.591 14.02 51.25 1.382 7.06 9.063 15.656 16.531 20.849 6.967 4.845 11.263 11.574 28.313 11.574s21.346-6.729 28.313-11.574c7.468-5.192 15.149-13.789 16.531-20.849 2.479-12.658 14.009-51.196 14.02-51.25h0.002c1.298-4.992 1.994-10.231 2.002-15.634C160.894 47.552 155.589 33.795 146.772 23.096z" fill="#eed2cf" stroke-width="none" opacity="1" stroke="none"></path><path id="SvgjsPath4082" d="M100.002 0.867C66.384 0.92 39.082 28.536 39.134 62.56c0.008 5.403 0.704 10.643 2.002 15.634h0.001c0.012 0.054 11.542 38.591 14.02 51.25 1.382 7.06 9.063 15.656 16.531 20.849 6.967 4.845 11.263 11.574 28.313 11.574s21.346-6.729 28.313-11.574c7.468-5.192 15.149-13.789 16.531-20.849 2.479-12.658 14.009-51.196 14.02-51.25h0.002c1.298-4.992 1.994-10.231 2.002-15.634C160.923 28.536 133.62 0.92 100.002 0.867z" fill="none" stroke="#c8837c" stroke-width="1.5" opacity="1"></path></g></g><g id="svga-group-mouth-single" ><path id="SvgjsPath4058" d="M99.983 141.177c-3.24 0-4.753-3.8-4.753-3.8s4.826 0.199 9.279 0.933C104.509 138.31 102.832 141.177 99.983 141.177z" fill="url(#SvgjsLinearGradient4059)" opacity="1"></path><path id="SvgjsPath4062" d="M87.792 135.571c-0.373-0.33 1.528-3.373 3.926-4.045 3.031-0.882 5.759 0.026 7.991 0.413 2.034 0.354 5.041 0.049 7.028 0.579 2.249 0.6 8.464 3.283 7.981 3.8 -0.238 0.255-4.963-1.676-8.076-2.278 -1.98-0.384-4.881-0.086-6.874-0.413 -2.062-0.337-4.47-1.21-7.268-0.805C89.962 133.189 88.217 135.947 87.792 135.571z" fill="#c8837c" stroke-width="none" opacity="1" stroke="none"></path></g><g id="svga-group-eyes-left" ><g id="svga-group-eyesback-left"><path id="SvgjsPath3982" d="M74.8 71.999c7.18 0 13 5.82 13 13 0 7.18-5.82 13-13 13s-13-5.82-13-13C61.8 77.819 67.62 71.999 74.8 71.999z" fill="url(#SvgjsRadialGradient3983)" opacity="1"></path></g><g id="svga-group-eyesiriswrapper-left" transform="translate(1 1)"><g id="svga-group-eyesiriscontrol-left" ><g id="svga-group-eyesiris-left" ><path id="SvgjsPath4020" d="M72.59 83.677l-4.437-1.012C68.056 83.095 68 83.54 68 83.999c0 0.459 0.057 0.905 0.154 1.334L74 83.999 72.59 83.677z" fill="#ea2e2e" stroke-width="none" opacity="1"></path><path id="SvgjsPath4021" d="M69.313 87.738c0.559 0.7 1.271 1.268 2.086 1.661l2.6-5.399L69.313 87.738z" fill="#f09330" stroke-width="none" opacity="1"></path><path id="SvgjsPath4022" d="M74 89.999c0.933 0 1.813-0.219 2.6-0.599L74 84 74 89.999z" fill="#64398e" stroke-width="none" opacity="1"></path><path id="SvgjsPath4023" d="M74 84l4.688 3.738c0.554-0.693 0.955-1.51 1.158-2.404L74 84z" fill="#393b97" stroke-width="none" opacity="1"></path><path id="SvgjsPath4024" d="M74 83.999l1.826-0.416 4.02-0.918c-0.203-0.894-0.604-1.711-1.158-2.404L74 83.999z" fill="#00aa4f" stroke-width="none" opacity="1"></path><path id="SvgjsPath4025" d="M76.6 78.598c-0.788-0.38-1.667-0.599-2.6-0.599v5.999L76.6 78.598z" fill="#fae636" stroke-width="none" opacity="1"></path><path id="SvgjsPath4026" d="M71.398 78.599c-0.814 0.393-1.527 0.961-2.086 1.662l4.687 3.738L71.398 78.599z" fill="#9c2d91" stroke-width="none" opacity="1"></path><path id="SvgjsPath4027" d="M74 83.999l5.846 1.334C79.943 84.904 80 84.458 80 83.999s-0.057-0.905-0.154-1.334l-4.02 0.918L74 83.999z" fill="#ea2e2e" stroke-width="none" opacity="1"></path><path id="SvgjsPath4028" d="M74 83.999L74 83.999 74 83.999l2.601 5.401c0.815-0.394 1.528-0.962 2.087-1.662L74 83.999 74 83.999z" fill="#9b328d" stroke-width="none" opacity="1"></path><path id="SvgjsPath4029" d="M74 84L74 84 74 84 74 84 74 84 74 84 74 84l-2.6 5.4c0.787 0.38 1.667 0.599 2.6 0.599h0L74 84 74 84z" fill="#fde92b" stroke-width="none" opacity="1"></path><path id="SvgjsPath4030" d="M74 84L74 84 74 84 74 84 74 84 74 84 74 84 74 84 74 84 74 84 74 84l-5.845 1.334c0.203 0.894 0.605 1.712 1.158 2.405L74 84 74 84z" fill="#00aa4f" stroke-width="none" opacity="1"></path><path id="SvgjsPath4031" d="M74 83.999L74 83.999 74 83.999 74 83.999 74 83.999 74 83.999 74 83.999v-6c-0.934 0-1.813 0.219-2.601 0.599L74 83.999 74 83.999z" fill="#65378f" stroke-width="none" opacity="1"></path><path id="SvgjsPath4032" d="M74 83.999L74 83.999 74 83.999l4.688-3.739c-0.559-0.7-1.272-1.269-2.087-1.662L74 83.999 74 83.999z" fill="#ec9236" stroke-width="none" opacity="1"></path><path id="SvgjsPath4033" d="M74 83.999L74 83.999l-4.688-3.739c-0.554 0.693-0.955 1.511-1.158 2.404l4.436 1.013L74 83.999z" fill="#393b97" stroke-width="none" opacity="1"></path><path id="SvgjsPath4034" d="M74 77.999c3.314 0 6 2.686 6 6s-2.686 6-6 6 -6-2.686-6-6S70.686 77.999 74 77.999z" fill="#000000" stroke-width="none" opacity="0.3"></path><path id="SvgjsPath4035" d="M76.333 83.999c0 1.289-1.044 2.333-2.333 2.333s-2.333-1.045-2.333-2.333 1.044-2.333 2.333-2.333S76.333 82.71 76.333 83.999z" fill="#000000" stroke-width="none" opacity="1"></path><path id="SvgjsPath4036" d="M71.769 88.072c-0.313 0.313-0.931 0.202-1.38-0.246 -0.449-0.449-0.56-1.067-0.246-1.38 0.313-0.313 0.93-0.203 1.379 0.246C71.971 87.141 72.082 87.759 71.769 88.072z" fill="#ffffff" stroke-width="none" opacity="0.6"></path><path id="SvgjsPath4037" d="M78.539 82.884c-0.468 0.469-1.602 0.094-2.533-0.836s-1.305-2.065-0.837-2.533c0.469-0.469 1.604-0.095 2.533 0.836C78.633 81.281 79.008 82.416 78.539 82.884z" fill="#ffffff" stroke-width="none" opacity="0.9"></path></g></g></g><g id="svga-group-eyesfront-left"><path id="SvgjsPath4007" d="M56.198 84.999c0 13.807 8.507 25 19 25s19-11.193 19-25 -8.507-25-19-25S56.198 71.192 56.198 84.999zM61.8 84.999c0-7.18 5.82-13 13-13s13 5.82 13 13c0 7.18-5.82 13-13 13S61.8 92.179 61.8 84.999z" fill="#f6e4e2" stroke-width="none" opacity="1" stroke="none"></path><path id="SvgjsPath4008" d="M61.8 84.999c0 7.18 5.82 13 13 13s13-5.82 13-13c0-7.18-5.82-13-13-13S61.8 77.819 61.8 84.999zM62.8 84.999c0-6.627 5.373-12 12-12s12 5.373 12 12c0 6.628-5.373 12-12 12S62.8 91.627 62.8 84.999z" fill="#782c76" stroke-width="none" opacity="1" stroke="none"></path></g></g><g id="svga-group-eyes-right" ><g id="svga-group-eyesback-right"><path id="SvgjsPath3990" d="M137.801 84.999c0 7.18-5.82 13-13 13s-13-5.82-13-13c0-7.18 5.82-13 13-13S137.801 77.819 137.801 84.999z" fill="url(#SvgjsRadialGradient3991)" opacity="1"></path></g><g id="svga-group-eyesiriswrapper-right" transform="translate(-1 1)"><g id="svga-group-eyesiriscontrol-right" ><g id="svga-group-eyesiris-right" ><path id="SvgjsPath4038" d="M124.591 83.677l-4.438-1.012c-0.098 0.43-0.153 0.875-0.153 1.334 0 0.459 0.057 0.905 0.154 1.334l5.845-1.334L124.591 83.677z" fill="#ea2e2e" stroke-width="none" opacity="1"></path><path id="SvgjsPath4039" d="M121.313 87.738c0.559 0.7 1.272 1.268 2.086 1.661L125.999 84 121.313 87.738z" fill="#f09330" stroke-width="none" opacity="1"></path><path id="SvgjsPath4040" d="M126.001 89.999c0.933 0 1.813-0.219 2.6-0.599L126 84 126.001 89.999z" fill="#64398e" stroke-width="none" opacity="1"></path><path id="SvgjsPath4041" d="M126 84l4.688 3.738c0.553-0.693 0.953-1.51 1.157-2.404L126 84z" fill="#393b97" stroke-width="none" opacity="1"></path><path id="SvgjsPath4042" d="M126 83.999l1.825-0.416 4.021-0.918c-0.204-0.894-0.604-1.711-1.157-2.404L126 83.999z" fill="#00aa4f" stroke-width="none" opacity="1"></path><path id="SvgjsPath4043" d="M128.601 78.598c-0.788-0.38-1.668-0.599-2.601-0.599v5.999L128.601 78.598z" fill="#fae636" stroke-width="none" opacity="1"></path><path id="SvgjsPath4044" d="M123.398 78.599c-0.813 0.393-1.527 0.961-2.087 1.662l4.688 3.738L123.398 78.599z" fill="#9c2d91" stroke-width="none" opacity="1"></path><path id="SvgjsPath4045" d="M126 83.999l5.846 1.334c0.098-0.43 0.154-0.875 0.154-1.334s-0.057-0.905-0.154-1.334l-4.021 0.918L126 83.999z" fill="#ea2e2e" stroke-width="none" opacity="1"></path><path id="SvgjsPath4046" d="M126 83.999L126 83.999 126 83.999l2.601 5.401c0.814-0.394 1.529-0.962 2.088-1.662L126 83.999 126 83.999z" fill="#9b328d" stroke-width="none" opacity="1"></path><path id="SvgjsPath4047" d="M126 84L126 84 126 84 126 84 126 84 126 84 126 84l-2.601 5.4c0.787 0.38 1.668 0.599 2.601 0.599h0.001L126 84 126 84z" fill="#fde92b" stroke-width="none" opacity="1"></path><path id="SvgjsPath4048" d="M125.999 84L125.999 84 125.999 84 125.999 84 125.999 84 125.999 84 125.999 84 125.999 84 125.999 84 125.999 84 125.999 84l-5.845 1.334c0.204 0.894 0.604 1.712 1.158 2.405L125.999 84 125.999 84z" fill="#00aa4f" stroke-width="none" opacity="1"></path><path id="SvgjsPath4049" d="M126 83.999L126 83.999 126 83.999 126 83.999 126 83.999 126 83.999 126 83.999v-6c-0.934 0-1.813 0.219-2.601 0.599L126 83.999 126 83.999z" fill="#65378f" stroke-width="none" opacity="1"></path><path id="SvgjsPath4050" d="M126 83.999L126 83.999 126 83.999l4.688-3.739c-0.559-0.7-1.273-1.269-2.088-1.662L126 83.999 126 83.999z" fill="#ec9236" stroke-width="none" opacity="1"></path><path id="SvgjsPath4051" d="M125.999 83.999L125.999 83.999l-4.688-3.739c-0.553 0.693-0.953 1.511-1.157 2.404l4.437 1.013L125.999 83.999z" fill="#393b97" stroke-width="none" opacity="1"></path><path id="SvgjsPath4052" d="M126 77.999c3.313 0 6 2.686 6 6s-2.687 6-6 6 -6-2.686-6-6S122.687 77.999 126 77.999z" fill="#000000" stroke-width="none" opacity="0.3"></path><path id="SvgjsPath4053" d="M128.333 83.999c0 1.289-1.044 2.333-2.333 2.333s-2.333-1.045-2.333-2.333 1.044-2.333 2.333-2.333S128.333 82.71 128.333 83.999z" fill="#000000" stroke-width="none" opacity="1"></path><path id="SvgjsPath4054" d="M123.769 88.072c-0.313 0.313-0.93 0.202-1.379-0.246 -0.449-0.449-0.561-1.067-0.246-1.38 0.313-0.313 0.93-0.203 1.379 0.246C123.971 87.141 124.081 87.759 123.769 88.072z" fill="#ffffff" stroke-width="none" opacity="0.6"></path><path id="SvgjsPath4055" d="M130.539 82.884c-0.468 0.469-1.603 0.094-2.533-0.836s-1.305-2.064-0.837-2.533c0.469-0.469 1.604-0.095 2.533 0.836C130.633 81.281 131.008 82.416 130.539 82.884z" fill="#ffffff" stroke-width="none" opacity="0.9"></path></g></g></g><g id="svga-group-eyesfront-right"><path id="SvgjsPath4018" d="M124.402 59.999c-10.493 0-19 11.193-19 25s8.507 25 19 25 19-11.193 19-25S134.896 59.999 124.402 59.999zM124.801 98c-7.18 0-13-5.82-13-13 0-7.18 5.82-13 13-13s13 5.82 13 13C137.801 92.179 131.98 98 124.801 98z" fill="#f6e4e2" stroke-width="none" opacity="1" stroke="none"></path><path id="SvgjsPath4019" d="M124.801 71.999c-7.18 0-13 5.82-13 13 0 7.18 5.82 13 13 13s13-5.82 13-13C137.801 77.819 131.98 71.999 124.801 71.999zM124.801 96.999c-6.627 0-12-5.372-12-12 0-6.627 5.373-12 12-12s12 5.373 12 12C136.801 91.627 131.428 96.999 124.801 96.999z" fill="#782c76" stroke-width="none" opacity="1" stroke="none"></path></g></g><g id="svga-group-facehighlight-single" ><path id="SvgjsPath3792" d="M141 113.974c0.035 22.622-18.292 40.994-40.938 41.025 -22.642 0.037-41.028-18.273-41.063-40.9 -0.035-22.62 18.292-41.064 40.937-41.1C122.579 72.964 140.967 91.349 141 113.974z" fill="url(#SvgjsRadialGradient3793)" opacity="1"></path><path id="SvgjsPath3796" d="M137.5 53.999c0 20.711-16.789 37.5-37.499 37.5 -20.711 0-37.501-16.789-37.501-37.5s16.79-37.5 37.501-37.5C120.711 16.499 137.5 33.288 137.5 53.999z" fill="url(#SvgjsRadialGradient3797)" opacity="1"></path></g><g id="svga-group-eyebrows-left" ><path id="SvgjsPath4056" d="M54.964 78c3.142-11.595 35.115-1.16 36.543-11.207 0.047-1.179-0.552-1.884-2.627-0.392C83.26 71.17 56.139 65.69 54.964 78z" fill="#080806" stroke-width="none" opacity="1" stroke="none"></path></g><g id="svga-group-eyebrows-right" ><path id="SvgjsPath4057" d="M145.036 78c-3.181-11.738-35.1-1.047-36.543-11.207 -0.047-1.179 0.553-1.884 2.627-0.392C116.737 71.168 143.861 65.699 145.036 78z" fill="#080806" stroke-width="none" opacity="1" stroke="none"></path></g><g id="svga-group-nose-single" ><path id="SvgjsPath3935" d="M91.115 115.499c-0.878 2.064 5.934 4.292 8.519 4.429 2.8 0.147 10.646-2.9 9.316-4.992 -1.399-2.195-6.643-0.286-8.906-0.286C97.792 114.649 92.291 112.745 91.115 115.499z" fill="#e7c1bd" stroke-width="none" opacity="1" stroke="none"></path><path id="SvgjsPath3936" d="M101.857 117.058c-0.23-0.759 1.876-1.584 2.657-1.694 1.101-0.16 3.36 0.802 3.158 1.592 -0.184 0.698-2.148-0.533-2.86-0.429C104.078 116.634 102.075 117.769 101.857 117.058zM94.974 116.811c0.968 0 2.404 0.623 2.668 0.074 0.315-0.655-2.139-1.461-2.86-1.372 -0.596 0.07-2.733 1.315-2.439 1.839C92.617 117.833 93.698 116.811 94.974 116.811z" fill="#c8837c" stroke-width="none" opacity="1" stroke="none"></path><path id="SvgjsPath3937" d="M100.089 111.999c0.607 0 1.742-0.74 1.792-2.23 0.201-6.008-0.956-23.833-1.792-23.77 -0.78 0.059-2.267 17.637-1.948 23.77C98.22 111.271 99.404 111.999 100.089 111.999z" fill="#ffffff" stroke-width="none" opacity="0.2" stroke="none"></path></g><g id="svga-group-beardwrap" ><g id="svga-group-beard-single" ><path id="SvgjsPath3810" d="M100,18.13L100,18.13L100,18.13L100,18.13z" fill="#2a232b" stroke-width="none" opacity="1"></path></g></g><g id="svga-group-mustache-single" ><path id="SvgjsPath3808" d="M100,18.13L100,18.13L100,18.13L100,18.13z" fill="#2a232b" stroke-width="none" opacity="1"></path></g><g id="svga-group-hair-front" ><path id="SvgjsPath3962" d="M47.026 91.499C36.463 75.132 33.771 45.712 41.42 29.37c3.677-8.152 11.5-16.87 19.933-22.212 3.296-1.755 14.915-7.519 25.207-7.519 2.41 0 4.566 0.328 6.409 0.976l0.128 0.045 0.117-0.068c2.99-1.725 6.747-2.046 14.581-2.148l0.25-0.003c1.869 0 3.991 0.519 6.679 1.175 2.018 0.493 4.305 1.052 7.044 1.532 14.452 2.091 25.214 9.782 31.994 22.861 11.354 21.899 7.755 51.169 2.551 61.403 -1.005 1.71-2.747 3.986-3.457 4.895 -2.569-6.597-2.109-9.274-1.58-12.363 0.486-2.823 1.035-6.024-0.416-12.708 -1.813-9.123-1.767-9.825-1.657-11.519 0.071-1.119 0.169-2.653-0.163-7.04 -1.297-8.593-4.051-18.792-13.937-21.607l-0.787-0.224 0.465 0.674c1.439 2.09 2.693 3.223 4.146 4.534 1.005 0.907 2.043 1.844 3.289 3.227 -0.877 0.208-1.729 0.307-2.646 0.307 -0.667 0-1.372-0.052-2.153-0.158l-0.747-0.102 0.482 0.582c0.824 0.995 2.164 2.119 3.241 3.022 0.251 0.21 0.489 0.411 0.706 0.597 -1.888 0.188-5.86 0.565-8.83 0.565 -0.9 0-1.652-0.035-2.233-0.102 -12.426-0.972-21.939-4-33.822-16.606l-0.219-0.233 -0.213 0.238c-2.139 2.382-3.451 3.556-5.765 5.442C79.22 35.362 60.993 42.51 51.347 44.644c2.717-3.577 3.516-6.073 3.868-7.173l0.08-0.245 -0.5-0.286c-1.06 1.211-1.746 1.854-2.594 2.512 0.01-0.048 0.021-0.097 0.031-0.147 0.235-1.119 0.629-2.991 1.007-6.871l0.109-1.112 -0.642 0.915c-4.648 6.618-4.203 16.015-3.811 24.306 0.209 4.41 0.407 8.576-0.191 11.822 -0.241 1.31-0.404 2.164-0.523 2.786 -0.193 1.004-0.272 1.42-0.372 2.184 -0.42 2.467-0.084 4.289 0.271 6.218C48.625 82.514 49.189 85.575 47.026 91.499z" fill="#080806" stroke-width="none" opacity="1" stroke="none"></path><path id="SvgjsPath3963" d="M156.313 85.41c-1.005 1.71-2.747 3.986-3.457 4.895 -4.851-12.454 1.084-10.881-1.996-25.071 -1.813-9.123-1.767-9.825-1.657-11.519 0.071-1.119 0.169-2.653-0.163-7.04 -2.384-15.797-7.969-19.74-14.626-21.635 3.238 4.701 4.341 4.399 7.802 8.238 -2.017 0.48-3.552 0.319-5.546 0.047 1.524 1.839 1.919 2.045 4.43 4.2 -20.885 2.083-32.607-3.115-45.104-16.376C84.298 34.184 60.663 42.583 51.347 44.644c2.298-3.023 3.205-5.132 3.947-7.418l-0.5-0.286c-1.06 1.211-1.746 1.854-2.594 2.512 0.636-3.031 0.833-4.916 1.146-8.13 -4.916 6.998-4.992 13.839-4.453 25.221 0.436 9.196 0.166 10.015-0.714 14.607 -1.88 9.786 2.647 9.943-1.153 20.35C36.463 75.132 33.771 45.712 41.42 29.37c1.542-3.419 3.821-6.936 6.562-10.265 -9.116 17.321-6.863 36.097-3.914 54.259 3.183-14.974-4.985-36.988 12.672-48.76 -0.251 4.011 0.04 4.3-1.274 8.526 1.999-1.542 4.529-3.101 7.099-5.442 0 4.905-2.439 7.648-5.505 12.554 8.215-3.434 32.004-13.243 38.019-28.679 8.829 11.772 22.562 20.601 38.257 22.563 -3.924-1.962-4.904-5.886-6.866-8.829 1.329 1.994 3.557 2.636 5.771 3.148 -3.475-3.993-2.631-5.865-3.475-10.928 8.321 5.933 13.512 6.156 18.417 13.022 8.089 14.409 9.959 31.208 8.187 48.006 3.777-22.269 4.31-50.502-11.041-67.09C165.663 31.031 163.301 71.67 156.313 85.41zM93.642 10.649c-7.696 9.673-18.75 16.569-29.838 23.461C83.652 24.708 89.941 16.459 93.642 10.649zM65.194 20.461C70.966 13.814 81.8 9.921 90.699 9.017 82.568 10.689 71.246 14.978 65.194 20.461zM44.92 35.176c3.365-11.42 12.869-21.716 27.794-26.159C58.992 14.661 49.245 24.915 44.92 35.176zM125.605 28.961c-11.956-3.481-22.122-11.056-27.059-17.983C104.801 17.909 117.104 25.159 125.605 28.961zM128.679 15.19c-14.388-6.021-18.71-7.194-28.497-7.809C111.377 6.862 117.438 8.883 128.679 15.19zM152.827 34.195c-3.864-10.752-15.955-22.29-29.429-25.505C138.173 10.557 150.093 22.106 152.827 34.195z" fill="#000000" stroke-width="none" opacity="1" stroke="none"></path><path id="SvgjsPath3964" d="M94.097 3.715c14.096-8.107 44.343 1.048 57.75 17.071 -5.559-9.81-19.544-18.116-30.079-19.64 -6.662-1.167-10.443-2.744-13.973-2.704C99.573-1.45 96.131-1.095 93.097 0.659c-9.233-3.216-23.166 1.931-31.744 6.499 -2.624 1.662-7.658 6.118-10.056 8.315C68.464 3.783 84.65-2.185 94.097 3.715z" fill="#10100d" stroke-width="none" opacity="1" stroke="none"></path><path id="SvgjsPath3965" d="M121.818 0.856c-6.584-1.154-10.664-2.793-14.027-2.708 -7.737 0.1-11.611 0.391-14.724 2.187C84.095-2.815 70.164 2.13 61.194 6.909c-8.02 5.081-16.169 13.751-20.041 22.337 -8.027 17.149-4.684 49.433 5.944 62.9 3.936-10.303-0.077-12.436 1-18.776 0.159-1.218 0.262-1.515 0.893-4.954 1.729-9.384-3.103-25.966 3.954-36.012 -0.499 5.102-1.016 6.692-1.178 7.74 1.253-0.918 1.984-1.569 3.247-3.012 -0.327 0.981-1.062 3.779-4.395 7.966 9.303-1.88 28.306-9.127 39.583-18.04 2.392-1.951 3.708-3.148 5.797-5.474 11.396 12.089 20.639 15.651 34.001 16.696 3.146 0.369 9.898-0.339 11.8-0.529 -1.059-0.97-3.264-2.633-4.424-4.032 1.894 0.257 3.62 0.234 5.356-0.285h0.01c-0.083-0.123-0.218-0.244-0.274-0.313 -3.09-3.438-5.032-4.266-7.446-7.77 9.221 2.625 12.299 11.911 13.724 21.346 0.852 11.268-1.146 3.633 1.825 18.6 3.108 14.311-3.034 12.512 2.198 25.593 0 0 2.492-3.111 3.806-5.346C165.161 68.663 167.408 7.454 121.818 0.856zM159.891 63.864c-1.55 19.571-3.241 21.057-6.994 26.369 -0.645-1.984-1.137-3.356-1.334-4.169 -1.516-5.478 2.872-9.442 0.353-21.042 -2.856-14.166-1.015-7.291-1.814-18.491 -1.686-10.32-5.623-19.876-16.03-21.611 1.051 2.778 6.656 7.095 8.124 8.407 -2.439 0.315-4.725 0.001-5.759-0.049 0.789 1.27 3.118 3.265 4.325 4.199 -21.423 0.401-32.106-4.996-44.506-16.177 -0.019-0.01-0.029-0.029-0.049-0.039 -0.137-0.127-0.274-0.246-0.401-0.373 -6.678 7.605-28.276 18.658-44.487 23.857 2.4-2.865 3.952-5.566 4.493-9.221 -0.858 0.981-1.332 1.814-3.453 3.777 0.713-2.228 1.159-6.304 1.236-8.662 -10.057 11.69-4.527 26.921-5.915 35.58 -0.379 3.881-1.742 6.671-0.981 11.831 0.654 3.077 2.125 6.251 0.235 13.165 -10.358-16.29-11.652-45.732-4.355-61.32 4.289-9.495 15.193-21.164 27.291-25.82 7.128-2.506 16.146-5.732 23.161-3.394 4.046-2.016 7.167-1.611 12.449-1.716 6.179-0.163 8.392 1.685 16.106 3.168 9.354 1.753 17.338 6.065 21.366 9.781C156.198 23.404 160.854 46.289 159.891 63.864z" fill="#000000" stroke-width="none" opacity="1" stroke="none"></path></g><g id="svga-group-glasses-single" ><path id="SvgjsPath3928" d="M100,18.13L100,18.13L100,18.13L100,18.13z" fill="#26120b" stroke-width="none" opacity="1"></path></g></g></g><rect id="SvgjsRect3777" width="200" height="15" x="0" y="185" fill="#ecf0f1" opacity="0.5" style="display:none;"></rect><text id="SvgjsText3778" font-family="&quot;Roboto&quot;, &quot;Helvetica Neue&quot;, Helvetica, Arial, sans-serif" style="font-size:0.84em;font-family:&quot;Roboto&quot;, &quot;Helvetica Neue&quot;, Helvetica, Arial, sans-serif;text-anchor:middle;font-weight:400;display:none;" font-size="0.84em" text-anchor="middle" font-weight="400" fill="#000000" x="100" y="185"><tspan id="SvgjsTspan3779" dy="1.2em" x="100" style="font-size:0.84em;font-family:&quot;Roboto&quot;, &quot;Helvetica Neue&quot;, Helvetica, Arial, sans-serif;text-anchor:middle;font-weight:400;">Created on AvatarMaker.com</tspan></text></g><defs id="SvgjsDefs3742"><radialGradient id="SvgjsRadialGradient3793" cx="100" cy="114" r="41" gradientUnits="userSpaceOnUse" class="svga-on-canvas-facehighlight-gradient-single-0"><stop id="SvgjsStop3794" stop-opacity="0.5" stop-color="#ffffff" offset="0" ></stop><stop id="SvgjsStop3795" stop-opacity="0" stop-color="#f6e4e2" offset="0.9" ></stop></radialGradient><radialGradient id="SvgjsRadialGradient3797" cx="100" cy="54" r="37" gradientUnits="userSpaceOnUse" class="svga-on-canvas-facehighlight-gradient-single-1"><stop id="SvgjsStop3798" stop-opacity="0.5" stop-color="#ffffff" offset="0" ></stop><stop id="SvgjsStop3799" stop-opacity="0" stop-color="#f6e4e2" offset="0.9" ></stop></radialGradient><radialGradient id="SvgjsRadialGradient3850" cx="121.986" cy="82.496" fx="133.239" fy="82.527" r="16.003" gradientTransform="matrix(0.9998 0.0208 0.0166 -0.7998 -45.3195 145.9395)" gradientUnits="userSpaceOnUse" class="svga-on-canvas-eyesfront-gradient-left-3"><stop id="SvgjsStop3851" stop-opacity="1" stop-color="#e7c1bd" offset="0" ></stop><stop id="SvgjsStop3852" stop-opacity="0.3" stop-color="#e7c1bd" offset="0.7" ></stop><stop id="SvgjsStop3853" stop-opacity="0" stop-color="#f6e4e2" offset="1" ></stop></radialGradient><radialGradient id="SvgjsRadialGradient3855" cx="68.931" cy="105.995" r="29.524" gradientTransform="matrix(1.0336 0 0 1.0336 -1.6796 1.3127)" gradientUnits="userSpaceOnUse" class="svga-on-canvas-eyesfront-gradient-left-4"><stop id="SvgjsStop3856" stop-opacity="0" stop-color="#000000" offset="0.95" ></stop><stop id="SvgjsStop3857" stop-opacity="0.2" stop-color="#000000" offset="1" ></stop></radialGradient><radialGradient id="SvgjsRadialGradient3870" cx="121.587" cy="82.496" fx="132.839" fy="82.527" r="16.003" gradientTransform="matrix(-0.9998 0.0208 -0.0166 -0.7998 244.5208 145.9478)" gradientUnits="userSpaceOnUse" class="svga-on-canvas-eyesfront-gradient-right-3"><stop id="SvgjsStop3871" stop-opacity="1" stop-color="#e7c1bd" offset="0" ></stop><stop id="SvgjsStop3872" stop-opacity="0.3" stop-color="#e7c1bd" offset="0.7" ></stop><stop id="SvgjsStop3873" stop-opacity="0" stop-color="#f6e4e2" offset="1" ></stop></radialGradient><radialGradient id="SvgjsRadialGradient3875" cx="69.316" cy="105.995" r="29.524" gradientTransform="matrix(-1.0336 0 0 1.0336 201.6796 1.3127)" gradientUnits="userSpaceOnUse" class="svga-on-canvas-eyesfront-gradient-right-4"><stop id="SvgjsStop3876" stop-opacity="0" stop-color="#000000" offset="0.95" ></stop><stop id="SvgjsStop3877" stop-opacity="0.2" stop-color="#000000" offset="1" ></stop></radialGradient><radialGradient id="SvgjsRadialGradient3882" cx="-568.659" cy="-521.042" r="59.751" gradientTransform="matrix(0.096 -0.0248 0.0245 0.0961 141.2814 119.9893)" gradientUnits="userSpaceOnUse" class="svga-on-canvas-eyesiris-gradient-left-1"><stop id="SvgjsStop3883" stop-opacity="1" stop-color="#ffffff" offset="0" ></stop><stop id="SvgjsStop3884" stop-opacity="0" stop-color="#ffffff" offset="1" ></stop></radialGradient><radialGradient id="SvgjsRadialGradient3886" cx="-582.838" cy="-519.099" r="59.745" gradientTransform="matrix(0.0991 8.856319e-004 -0.0011 0.0991 131.1134 135.9855)" gradientUnits="userSpaceOnUse" class="svga-on-canvas-eyesiris-gradient-left-2"><stop id="SvgjsStop3887" stop-opacity="1" stop-color="#ffffff" offset="0" ></stop><stop id="SvgjsStop3888" stop-opacity="0" stop-color="#ffffff" offset="1" ></stop></radialGradient><linearGradient id="SvgjsLinearGradient3892" x1="122.67" y1="88.268" x2="123.606" y2="87.152" gradientTransform="matrix(1 0 0 1 -52 0)" gradientUnits="userSpaceOnUse" class="svga-on-canvas-eyesiris-gradient-left-5"><stop id="SvgjsStop3893" stop-opacity="1" stop-color="#ffffff" offset="0" ></stop><stop id="SvgjsStop3894" stop-opacity="0" stop-color="#ffffff" offset="1" ></stop></linearGradient><linearGradient id="SvgjsLinearGradient3896" x1="127.212" y1="82.296" x2="126.463" y2="83.189" gradientTransform="matrix(1 0 0 1 -52 0)" gradientUnits="userSpaceOnUse" class="svga-on-canvas-eyesiris-gradient-left-6"><stop id="SvgjsStop3897" stop-opacity="1" stop-color="#ffffff" offset="0" ></stop><stop id="SvgjsStop3898" stop-opacity="0" stop-color="#ffffff" offset="1" ></stop></linearGradient><linearGradient id="SvgjsLinearGradient3900" x1="129.636" y1="79.822" x2="127.91" y2="81.879" gradientTransform="matrix(1 0 0 1 -52 0)" gradientUnits="userSpaceOnUse" class="svga-on-canvas-eyesiris-gradient-left-7"><stop id="SvgjsStop3901" stop-opacity="1" stop-color="#ffffff" offset="0" ></stop><stop id="SvgjsStop3902" stop-opacity="0" stop-color="#ffffff" offset="1" ></stop></linearGradient><radialGradient id="SvgjsRadialGradient3905" cx="-568.654" cy="-521.042" r="59.752" gradientTransform="matrix(0.096 -0.0248 0.0245 0.0961 193.2804 119.9894)" gradientUnits="userSpaceOnUse" class="svga-on-canvas-eyesiris-gradient-right-1"><stop id="SvgjsStop3906" stop-opacity="1" stop-color="#ffffff" offset="0" ></stop><stop id="SvgjsStop3907" stop-opacity="0" stop-color="#ffffff" offset="1" ></stop></radialGradient><radialGradient id="SvgjsRadialGradient3909" cx="-582.833" cy="-519.102" r="59.747" gradientTransform="matrix(0.0991 8.856319e-004 -0.0011 0.0991 183.1126 135.9856)" gradientUnits="userSpaceOnUse" class="svga-on-canvas-eyesiris-gradient-right-2"><stop id="SvgjsStop3910" stop-opacity="1" stop-color="#ffffff" offset="0" ></stop><stop id="SvgjsStop3911" stop-opacity="0" stop-color="#ffffff" offset="1" ></stop></radialGradient><linearGradient id="SvgjsLinearGradient3915" x1="122.67" y1="88.268" x2="123.606" y2="87.152" gradientUnits="userSpaceOnUse" class="svga-on-canvas-eyesiris-gradient-right-5"><stop id="SvgjsStop3916" stop-opacity="1" stop-color="#ffffff" offset="0" ></stop><stop id="SvgjsStop3917" stop-opacity="0" stop-color="#ffffff" offset="1" ></stop></linearGradient><linearGradient id="SvgjsLinearGradient3919" x1="127.212" y1="82.296" x2="126.463" y2="83.189" gradientUnits="userSpaceOnUse" class="svga-on-canvas-eyesiris-gradient-right-6"><stop id="SvgjsStop3920" stop-opacity="1" stop-color="#ffffff" offset="0" ></stop><stop id="SvgjsStop3921" stop-opacity="0" stop-color="#ffffff" offset="1" ></stop></linearGradient><linearGradient id="SvgjsLinearGradient3923" x1="129.636" y1="79.822" x2="127.91" y2="81.879" gradientUnits="userSpaceOnUse" class="svga-on-canvas-eyesiris-gradient-right-7"><stop id="SvgjsStop3924" stop-opacity="1" stop-color="#ffffff" offset="0" ></stop><stop id="SvgjsStop3925" stop-opacity="0" stop-color="#ffffff" offset="1" ></stop></linearGradient><radialGradient id="SvgjsRadialGradient3983" cx="125.2" cy="85" r="13" gradientTransform="matrix(-1 0 0 1 200 0)" gradientUnits="userSpaceOnUse" class="svga-on-canvas-eyesback-gradient-left-0"><stop id="SvgjsStop3984" stop-opacity="1" stop-color="#ffffff" offset="0" ></stop><stop id="SvgjsStop3985" stop-opacity="1" stop-color="#fdfefe" offset="0.544" ></stop><stop id="SvgjsStop3986" stop-opacity="1" stop-color="#f6f8f9" offset="0.74" ></stop><stop id="SvgjsStop3987" stop-opacity="1" stop-color="#eaeff2" offset="0.879" ></stop><stop id="SvgjsStop3988" stop-opacity="1" stop-color="#d9e3e8" offset="0.992" ></stop><stop id="SvgjsStop3989" stop-opacity="1" stop-color="#d8e2e7" offset="1" ></stop></radialGradient><radialGradient id="SvgjsRadialGradient3991" cx="124.801" cy="85" r="13" gradientUnits="userSpaceOnUse" class="svga-on-canvas-eyesback-gradient-right-0"><stop id="SvgjsStop3992" stop-opacity="1" stop-color="#ffffff" offset="0" ></stop><stop id="SvgjsStop3993" stop-opacity="1" stop-color="#fdfefe" offset="0.544" ></stop><stop id="SvgjsStop3994" stop-opacity="1" stop-color="#f6f8f9" offset="0.74" ></stop><stop id="SvgjsStop3995" stop-opacity="1" stop-color="#eaeff2" offset="0.879" ></stop><stop id="SvgjsStop3996" stop-opacity="1" stop-color="#d9e3e8" offset="0.992" ></stop><stop id="SvgjsStop3997" stop-opacity="1" stop-color="#d8e2e7" offset="1" ></stop></radialGradient><radialGradient id="SvgjsRadialGradient3999" cx="125.2" cy="85" r="13" gradientTransform="matrix(-1 0 0 1 200 0)" gradientUnits="userSpaceOnUse" class="svga-on-canvas-eyesfront-gradient-left-0"><stop id="SvgjsStop4000" stop-opacity="1" stop-color="#ffffff" offset="0" ></stop><stop id="SvgjsStop4001" stop-opacity="1" stop-color="#fdfefe" offset="0.544" ></stop><stop id="SvgjsStop4002" stop-opacity="1" stop-color="#f6f8f9" offset="0.74" ></stop><stop id="SvgjsStop4003" stop-opacity="1" stop-color="#eaeff2" offset="0.879" ></stop><stop id="SvgjsStop4004" stop-opacity="1" stop-color="#d9e3e8" offset="0.992" ></stop><stop id="SvgjsStop4005" stop-opacity="1" stop-color="#d8e2e7" offset="1" ></stop></radialGradient><radialGradient id="SvgjsRadialGradient4010" cx="124.801" cy="85" r="13" gradientUnits="userSpaceOnUse" class="svga-on-canvas-eyesfront-gradient-right-0"><stop id="SvgjsStop4011" stop-opacity="1" stop-color="#ffffff" offset="0" ></stop><stop id="SvgjsStop4012" stop-opacity="1" stop-color="#fdfefe" offset="0.544" ></stop><stop id="SvgjsStop4013" stop-opacity="1" stop-color="#f6f8f9" offset="0.74" ></stop><stop id="SvgjsStop4014" stop-opacity="1" stop-color="#eaeff2" offset="0.879" ></stop><stop id="SvgjsStop4015" stop-opacity="1" stop-color="#d9e3e8" offset="0.992" ></stop><stop id="SvgjsStop4016" stop-opacity="1" stop-color="#d8e2e7" offset="1" ></stop></radialGradient><linearGradient id="SvgjsLinearGradient4059" x1="100" y1="141" x2="100" y2="137" gradientUnits="userSpaceOnUse" class="svga-on-canvas-mouth-gradient-single-0"><stop id="SvgjsStop4060" stop-opacity="1" stop-color="#eed2cf" offset="0.1" ></stop><stop id="SvgjsStop4061" stop-opacity="1" stop-color="#e7c1bd" offset="1" ></stop></linearGradient><linearGradient id="SvgjsLinearGradient4084" x1="100" y1="172" x2="100" y2="130" gradientUnits="userSpaceOnUse" class="svga-on-canvas-chinshadow-gradient-single-0"><stop id="SvgjsStop4085" stop-opacity="0.8" stop-color="#e7c1bd" offset="0" ></stop><stop id="SvgjsStop4086" stop-opacity="1" stop-color="#c8837c" offset="0.7" ></stop></linearGradient></defs></svg>